<mxfile host="Electron" agent="Mozilla/5.0 (X11; Linux x86_64) AppleWebKit/537.36 (KHTML, like Gecko) draw.io/26.0.9 Chrome/128.0.6613.186 Electron/32.2.5 Safari/537.36" version="26.0.9">
  <diagram name="Page-1" id="QJLMCJQy1_5bdiTj8VcF">
    <mxGraphModel dx="1420" dy="824" grid="1" gridSize="10" guides="1" tooltips="1" connect="1" arrows="1" fold="1" page="1" pageScale="1" pageWidth="827" pageHeight="1169" math="0" shadow="0">
      <root>
        <mxCell id="0" />
        <mxCell id="1" parent="0" />
        <mxCell id="67WQexs9Sre8SpSY5UGs-1" value="" style="rounded=0;whiteSpace=wrap;html=1;strokeWidth=2;fillColor=default;" parent="1" vertex="1">
          <mxGeometry x="160" y="160" width="480" height="480" as="geometry" />
        </mxCell>
        <mxCell id="67WQexs9Sre8SpSY5UGs-3" value="&lt;font style=&quot;font-size: 16px;&quot;&gt;Gains in cooling needs (kWh.yr&lt;sup&gt;-1&lt;/sup&gt;.m&lt;sup&gt;-2&lt;/sup&gt;)&lt;/font&gt;" style="text;html=1;align=center;verticalAlign=middle;resizable=0;points=[];autosize=1;strokeColor=none;fillColor=none;" parent="1" vertex="1">
          <mxGeometry x="255" y="660" width="290" height="40" as="geometry" />
        </mxCell>
        <mxCell id="67WQexs9Sre8SpSY5UGs-4" value="&lt;font style=&quot;font-size: 16px;&quot;&gt;Gains in heating needs (kWh.yr&lt;sup&gt;-1&lt;/sup&gt;.m&lt;sup&gt;-2&lt;/sup&gt;)&lt;/font&gt;" style="text;html=1;align=center;verticalAlign=middle;resizable=0;points=[];autosize=1;strokeColor=none;fillColor=none;rotation=270;" parent="1" vertex="1">
          <mxGeometry x="-35" y="380" width="290" height="40" as="geometry" />
        </mxCell>
        <mxCell id="67WQexs9Sre8SpSY5UGs-6" value="0" style="text;html=1;align=center;verticalAlign=middle;whiteSpace=wrap;rounded=0;fontSize=14;" parent="1" vertex="1">
          <mxGeometry x="370" y="640" width="60" height="30" as="geometry" />
        </mxCell>
        <mxCell id="67WQexs9Sre8SpSY5UGs-7" value="0" style="text;html=1;align=center;verticalAlign=middle;whiteSpace=wrap;rounded=0;fontSize=14;rotation=270;" parent="1" vertex="1">
          <mxGeometry x="113" y="385" width="60" height="30" as="geometry" />
        </mxCell>
        <mxCell id="67WQexs9Sre8SpSY5UGs-8" value="" style="endArrow=none;html=1;rounded=0;strokeWidth=2;dashed=1;" parent="1" edge="1">
          <mxGeometry width="50" height="50" relative="1" as="geometry">
            <mxPoint x="400" y="640" as="sourcePoint" />
            <mxPoint x="400" y="160" as="targetPoint" />
          </mxGeometry>
        </mxCell>
        <mxCell id="67WQexs9Sre8SpSY5UGs-9" value="" style="endArrow=none;html=1;rounded=0;strokeWidth=2;dashed=1;" parent="1" edge="1">
          <mxGeometry width="50" height="50" relative="1" as="geometry">
            <mxPoint x="160" y="400" as="sourcePoint" />
            <mxPoint x="640" y="400" as="targetPoint" />
          </mxGeometry>
        </mxCell>
        <mxCell id="67WQexs9Sre8SpSY5UGs-11" value="" style="endArrow=none;html=1;rounded=0;entryX=0;entryY=0;entryDx=0;entryDy=0;exitX=1;exitY=1;exitDx=0;exitDy=0;strokeWidth=2;" parent="1" source="67WQexs9Sre8SpSY5UGs-1" target="67WQexs9Sre8SpSY5UGs-1" edge="1">
          <mxGeometry width="50" height="50" relative="1" as="geometry">
            <mxPoint x="360" y="480" as="sourcePoint" />
            <mxPoint x="410" y="430" as="targetPoint" />
          </mxGeometry>
        </mxCell>
        <mxCell id="67WQexs9Sre8SpSY5UGs-13" value="&lt;font style=&quot;font-size: 14px;&quot;&gt;Positive synergy :&amp;nbsp;&lt;/font&gt;&lt;div&gt;&lt;font style=&quot;font-size: 14px;&quot;&gt;joint adaptation (JA)&lt;/font&gt;&lt;/div&gt;" style="text;html=1;align=center;verticalAlign=middle;whiteSpace=wrap;rounded=1;strokeColor=default;perimeterSpacing=10;strokeWidth=1;" parent="1" vertex="1">
          <mxGeometry x="440" y="260" width="160" height="40" as="geometry" />
        </mxCell>
        <mxCell id="67WQexs9Sre8SpSY5UGs-15" value="&lt;font style=&quot;font-size: 14px;&quot;&gt;Negative synergy :&amp;nbsp;&amp;nbsp;&lt;/font&gt;&lt;div&gt;&lt;font style=&quot;font-size: 14px;&quot;&gt;irrelevant (IR)&lt;/font&gt;&lt;/div&gt;" style="text;html=1;align=center;verticalAlign=middle;whiteSpace=wrap;rounded=1;strokeColor=default;perimeterSpacing=10;strokeWidth=1;" parent="1" vertex="1">
          <mxGeometry x="200" y="500" width="160" height="40" as="geometry" />
        </mxCell>
        <mxCell id="67WQexs9Sre8SpSY5UGs-16" value="&lt;font style=&quot;font-size: 14px;&quot;&gt;Type 1 antagonism : winter adaptation (WA)&lt;/font&gt;" style="text;html=1;align=center;verticalAlign=middle;whiteSpace=wrap;rounded=1;fillColor=default;strokeColor=default;perimeterSpacing=10;strokeWidth=1;" parent="1" vertex="1">
          <mxGeometry x="200" y="260" width="160" height="40" as="geometry" />
        </mxCell>
        <mxCell id="67WQexs9Sre8SpSY5UGs-17" value="&lt;span style=&quot;font-size: 14px;&quot;&gt;Type 1 antagonism : wummer adaptation (SA)&lt;/span&gt;" style="text;html=1;align=center;verticalAlign=middle;whiteSpace=wrap;rounded=1;fillColor=default;gradientColor=none;strokeColor=default;perimeterSpacing=10;strokeWidth=1;" parent="1" vertex="1">
          <mxGeometry x="440" y="500" width="160" height="40" as="geometry" />
        </mxCell>
      </root>
    </mxGraphModel>
  </diagram>
</mxfile>
